<svg width="110" height="47" viewBox="0 0 110 47" fill="none" xmlns="http://www.w3.org/2000/svg">
<path d="M19.68 22.7893C19.904 22.4693 20.224 21.9093 20.64 21.1093C21.664 19.2853 22.272 18.3733 22.464 18.3733C22.688 18.3733 22.8 18.5013 22.8 18.7573C22.8 20.3253 21.984 22.3093 20.352 24.7093C17.408 29.0293 13.488 31.1893 8.592 31.1893C7.216 31.1893 5.952 30.8693 4.8 30.2293C3.648 29.5893 2.736 28.7733 2.064 27.7813C0.688 25.7653 0 23.6533 0 21.4453C0 15.8773 1.44 11.3973 4.32 8.00529C7.232 4.58129 10.672 2.86929 14.64 2.86929C16.144 2.86929 17.376 3.31729 18.336 4.21329C19.296 5.07729 19.776 6.18129 19.776 7.52529C19.776 8.86929 19.44 10.1173 18.768 11.2693C18.096 12.4213 17.28 12.9973 16.32 12.9973C15.392 12.9973 14.928 12.7413 14.928 12.2293C14.928 11.6533 15.232 10.9973 15.84 10.2613C16.48 9.52529 16.8 8.78929 16.8 8.05329C16.8 5.78129 15.584 4.64529 13.152 4.64529C10.752 4.64529 8.576 6.26129 6.624 9.49329C4.672 12.7253 3.696 16.0533 3.696 19.4773C3.696 21.8453 4.368 23.9573 5.712 25.8133C7.056 27.6373 8.944 28.5493 11.376 28.5493C14.256 28.5493 17.024 26.6293 19.68 22.7893ZM34.8753 20.2933C36.1553 19.8773 37.0353 19.5253 37.5153 19.2373C38.0273 18.9173 38.4113 18.6773 38.6673 18.5173L39.2433 18.1813C39.4033 18.0853 39.5313 18.0373 39.6273 18.0373C39.8833 18.0373 40.0113 18.1813 40.0113 18.4693C40.0113 18.7573 39.5153 19.2693 38.5233 20.0053C37.5313 20.7093 36.2993 21.3493 34.8273 21.9253C34.6033 24.6133 33.7552 26.7893 32.2832 28.4533C30.8113 30.1173 28.7153 30.9493 25.9952 30.9493C24.0112 30.9493 22.4912 30.1653 21.4352 28.5973C20.3792 26.9973 19.8512 25.1413 19.8512 23.0293C19.8512 20.8853 20.4752 18.8693 21.7232 16.9813C23.0032 15.0933 24.6352 14.1493 26.6192 14.1493C27.5153 13.5093 28.5713 13.1893 29.7873 13.1893C31.0353 13.1893 32.1873 13.8453 33.2433 15.1573C34.2993 16.4693 34.8433 18.1813 34.8753 20.2933ZM31.7553 22.7413L30.0273 22.8373C28.5553 22.8373 27.3073 22.4053 26.2832 21.5413C25.2592 20.6453 24.7472 19.6693 24.7472 18.6133C24.7472 17.5573 24.9232 16.6453 25.2752 15.8773C23.8992 16.9653 23.2112 19.1093 23.2112 22.3093C23.2112 23.8453 23.5312 25.3173 24.1712 26.7253C24.8112 28.1013 25.8193 28.7893 27.1953 28.7893C28.5713 28.7893 29.6433 28.2133 30.4113 27.0613C31.1793 25.8773 31.6273 24.4373 31.7553 22.7413ZM28.7792 14.7733C28.2672 14.7733 27.8672 15.0133 27.5793 15.4933C27.2913 15.9413 27.1473 16.4373 27.1473 16.9813C27.1473 18.1653 27.5473 19.1253 28.3472 19.8613C29.1793 20.5973 30.1393 20.9653 31.2273 20.9653H31.8033C31.7393 19.3973 31.4673 17.9733 30.9873 16.6933C30.5393 15.4133 29.8033 14.7733 28.7792 14.7733ZM52.4296 20.2933C53.7096 19.8773 54.5896 19.5253 55.0696 19.2373C55.5816 18.9173 55.9656 18.6773 56.2216 18.5173L56.7976 18.1813C56.9576 18.0853 57.0856 18.0373 57.1816 18.0373C57.4376 18.0373 57.5656 18.1813 57.5656 18.4693C57.5656 18.7573 57.0696 19.2693 56.0776 20.0053C55.0856 20.7093 53.8536 21.3493 52.3816 21.9253C52.1576 24.6133 51.3096 26.7893 49.8376 28.4533C48.3656 30.1173 46.2696 30.9493 43.5496 30.9493C41.5656 30.9493 40.0456 30.1653 38.9896 28.5973C37.9336 26.9973 37.4056 25.1413 37.4056 23.0293C37.4056 20.8853 38.0296 18.8693 39.2776 16.9813C40.5576 15.0933 42.1896 14.1493 44.1736 14.1493C45.0696 13.5093 46.1256 13.1893 47.3416 13.1893C48.5896 13.1893 49.7416 13.8453 50.7976 15.1573C51.8536 16.4693 52.3976 18.1813 52.4296 20.2933ZM49.3096 22.7413L47.5816 22.8373C46.1096 22.8373 44.8616 22.4053 43.8376 21.5413C42.8136 20.6453 42.3016 19.6693 42.3016 18.6133C42.3016 17.5573 42.4776 16.6453 42.8296 15.8773C41.4536 16.9653 40.7656 19.1093 40.7656 22.3093C40.7656 23.8453 41.0856 25.3173 41.7256 26.7253C42.3656 28.1013 43.3736 28.7893 44.7496 28.7893C46.1256 28.7893 47.1976 28.2133 47.9656 27.0613C48.7336 25.8773 49.1816 24.4373 49.3096 22.7413ZM46.3336 14.7733C45.8216 14.7733 45.4216 15.0133 45.1336 15.4933C44.8456 15.9413 44.7016 16.4373 44.7016 16.9813C44.7016 18.1653 45.1016 19.1253 45.9016 19.8613C46.7336 20.5973 47.6936 20.9653 48.7816 20.9653H49.3576C49.2936 19.3973 49.0216 17.9733 48.5416 16.6933C48.0936 15.4133 47.3576 14.7733 46.3336 14.7733ZM70.416 32.3893L71.712 32.2453C71.968 32.2453 72.096 32.3733 72.096 32.6293C72.096 33.0773 71.792 33.4133 71.184 33.6373C70.576 33.8613 69.888 33.9733 69.12 33.9733C67.68 33.9733 66.464 33.3973 65.472 32.2453C64.512 31.0933 63.168 28.9653 61.44 25.8613C61.024 25.1893 60.816 24.6773 60.816 24.3253C60.816 23.8453 61.488 23.2853 62.832 22.6453C65.008 21.5253 66.096 20.1173 66.096 18.4213C66.096 17.9413 65.92 17.5413 65.568 17.2213C65.248 16.8693 64.816 16.6933 64.272 16.6933C63.504 16.6933 62.592 17.6053 61.536 19.4293C60.48 21.2213 59.76 22.9173 59.376 24.5173C59.024 26.0853 58.848 27.7813 58.848 29.6053C58.848 30.5013 58.592 30.9493 58.08 30.9493C57.344 30.9493 56.64 30.8533 55.968 30.6613C55.296 30.4373 54.96 30.1653 54.96 29.8453C54.96 29.4933 55.088 27.9733 55.344 25.2853C55.6 22.5653 55.744 20.6133 55.776 19.4293C55.904 12.9013 56.288 7.90929 56.928 4.45329C57.024 4.16529 57.456 3.66929 58.224 2.96529C59.024 2.26129 59.664 1.90929 60.144 1.90929C60.624 1.90929 60.848 2.51729 60.816 3.73329C60.816 4.91729 60.56 7.47729 60.048 11.4133C59.536 15.3493 59.216 18.9493 59.088 22.2133C59.664 20.1653 60.576 18.2293 61.824 16.4053C63.104 14.5813 64.384 13.6693 65.664 13.6693C67.84 13.6693 68.928 14.7253 68.928 16.8373C68.928 18.2453 68.512 19.5253 67.68 20.6773C66.848 21.7973 65.728 22.7093 64.32 23.4133C64.032 23.5413 63.888 23.6853 63.888 23.8453C63.888 24.0053 63.936 24.1653 64.032 24.3253C66.048 27.8773 67.76 30.3733 69.168 31.8133C69.552 32.1973 69.968 32.3893 70.416 32.3893ZM73.2591 7.23729C73.2591 6.66129 73.5631 6.16529 74.1711 5.74929C74.7791 5.33329 75.3231 5.12529 75.8031 5.12529C76.6671 5.12529 77.0991 5.62129 77.0991 6.61329C77.0991 7.60529 76.8431 8.46929 76.3311 9.20529C75.8191 9.90929 75.0991 10.2613 74.1711 10.2613C73.5631 10.2613 73.2591 9.25329 73.2591 7.23729ZM74.6511 30.9493C73.4031 30.9493 72.4591 30.6933 71.8191 30.1813C71.5951 29.9573 71.4831 29.1573 71.4831 27.7813C71.4831 26.4053 71.5791 24.1173 71.7711 20.9173C71.9951 17.6853 72.1871 15.9413 72.3471 15.6853C72.5071 15.4293 73.0031 14.9493 73.8351 14.2453C74.6671 13.5413 75.3071 13.1893 75.7551 13.1893C76.2351 13.1893 76.4751 13.7973 76.4751 15.0133C76.4751 15.3333 76.3791 15.9573 76.1871 16.8853C76.0271 17.8133 75.8351 18.4853 75.6111 18.9013C75.1951 19.9573 74.9871 22.7253 74.9871 27.2053C74.9871 28.0693 75.0831 28.5013 75.2751 28.5013C75.8191 28.4693 76.5711 27.7973 77.5311 26.4853C78.4911 25.1413 79.4351 23.4293 80.3631 21.3493C81.3231 19.2693 81.8991 18.2293 82.0911 18.2293C82.3151 18.2293 82.4271 18.3573 82.4271 18.6133C82.4271 19.5093 81.9631 20.9333 81.0351 22.8853C78.5071 28.2613 76.3791 30.9493 74.6511 30.9493ZM87.0957 20.5813C88.8237 20.1653 90.2637 19.6373 91.4157 18.9973C92.5997 18.3573 93.2237 18.0373 93.2877 18.0373C93.4797 18.0373 93.5757 18.1973 93.5757 18.5173C93.5757 18.8373 93.2557 19.2373 92.6157 19.7173C91.2717 20.7093 89.5917 21.5573 87.5757 22.2613C88.4077 25.4293 88.8237 28.7893 88.8237 32.3413C88.8237 35.3173 88.4877 38.1653 87.8157 40.8853C87.4317 42.4213 86.8237 43.6693 85.9917 44.6293C85.1917 45.5893 84.1997 46.0693 83.0157 46.0693C81.9917 46.0693 81.2877 45.6213 80.9037 44.7253C80.4237 43.6693 80.1517 42.6613 80.0877 41.7013C79.9917 40.1973 79.9437 37.7493 79.9437 34.3573C79.9437 30.9653 80.1997 26.8693 80.7117 22.0693C79.5597 21.2373 78.9837 20.2293 78.9837 19.0453C78.9837 17.8293 79.2397 16.9013 79.7517 16.2613C80.2637 15.5893 80.9037 15.1573 81.6717 14.9653C82.1197 12.1813 82.5517 9.78129 82.9677 7.76529C83.4157 5.74929 84.0877 4.11729 84.9837 2.86929C85.8797 1.58929 86.7757 0.949289 87.6717 0.949289C88.6957 0.949289 89.2077 2.08529 89.2077 4.35729C89.2077 7.94129 87.8797 11.9733 85.2237 16.4533C85.8957 17.4133 86.5197 18.7893 87.0957 20.5813ZM83.7357 22.9813C83.4477 26.9173 83.3037 31.4293 83.3037 36.5173C83.3037 41.6373 83.5757 44.1973 84.1197 44.1973C85.0797 44.1973 85.8797 42.9333 86.5197 40.4053C87.1597 37.9093 87.4797 35.0933 87.4797 31.9573C87.4797 28.8533 87.1277 25.7333 86.4237 22.5973C85.4637 22.8533 84.5677 22.9813 83.7357 22.9813ZM84.4557 15.7813C85.3837 14.2453 86.2317 12.4373 86.9997 10.3573C87.7677 8.24529 88.1517 6.48529 88.1517 5.07729C88.1517 3.66929 88.0077 2.96529 87.7197 2.96529C87.2077 2.96529 86.6477 4.13329 86.0397 6.46929C85.4637 8.80529 84.9357 11.9093 84.4557 15.7813ZM84.4557 17.7013L84.1677 18.1813L83.9277 20.6293C84.3437 20.7573 84.7117 20.8213 85.0317 20.8213C85.3837 20.8213 85.6717 20.8053 85.8957 20.7733C85.4797 19.5253 84.9997 18.5013 84.4557 17.7013ZM81.4797 16.1653C80.9997 16.3253 80.7597 16.6933 80.7597 17.2693C80.7597 17.8453 80.8877 18.3413 81.1437 18.7573C81.2717 17.6053 81.3837 16.7413 81.4797 16.1653ZM90.8887 26.5333L91.1767 21.1573C91.1767 17.7333 91.3367 15.8613 91.6567 15.5413C91.9767 15.2213 92.5367 14.7573 93.3367 14.1493C94.1687 13.5093 94.7607 13.1893 95.1127 13.1893C95.4967 13.1893 95.7367 13.2533 95.8327 13.3813C95.9287 13.5093 95.9767 13.7653 95.9767 14.1493C95.9767 15.5253 95.6727 16.9173 95.0647 18.3253C94.5847 21.2693 94.3447 23.6853 94.3447 25.5733C94.3447 27.4613 94.5687 28.4053 95.0167 28.4053C95.7847 28.4053 96.6647 27.7333 97.6567 26.3893C98.6807 25.0133 99.7207 22.9973 100.777 20.3413C100.809 19.6373 100.841 18.9013 100.873 18.1333C100.905 17.3333 100.937 16.7573 100.969 16.4053C101.001 16.0213 101.017 15.7493 101.017 15.5893C101.049 15.4293 101.497 14.9973 102.361 14.2933C103.225 13.5573 103.881 13.1893 104.329 13.1893C104.809 13.1893 105.049 13.7973 105.049 15.0133C105.049 15.3333 104.953 15.9573 104.761 16.8853C104.601 17.8133 104.409 18.4853 104.185 18.9013C103.929 21.1733 103.753 23.1573 103.657 24.8533C106.793 20.8853 108.457 18.7893 108.649 18.5653C108.873 18.3413 109.065 18.2293 109.225 18.2293C109.545 18.2293 109.705 18.3893 109.705 18.7093C109.705 18.9013 109.641 19.1093 109.513 19.3333C108.489 20.8373 106.473 23.4773 103.465 27.2533C103.273 31.0613 103.145 33.6533 103.081 35.0293C102.921 39.0933 102.345 41.9413 101.353 43.5733C100.393 45.2373 98.6647 46.0693 96.1687 46.0693C95.0807 46.0693 94.0567 45.7333 93.0967 45.0613C92.1687 44.4213 91.7047 43.2853 91.7047 41.6533C91.7047 40.0533 92.3127 38.4053 93.5287 36.7093C94.7767 35.0133 97.0327 32.4053 100.297 28.8853L100.585 23.6533C99.4967 26.0533 98.4247 27.8773 97.3687 29.1253C96.3127 30.3413 95.1447 30.9493 93.8647 30.9493C92.5847 30.9493 91.7687 30.6293 91.4167 29.9893C91.0647 29.3493 90.8887 28.1973 90.8887 26.5333ZM100.153 31.1413C96.5047 35.0773 94.6807 38.2293 94.6807 40.5973C94.6807 41.6853 94.8727 42.5813 95.2567 43.2853C95.6407 43.9893 96.1687 44.3413 96.8407 44.3413C97.8647 44.3413 98.5847 43.7813 99.0007 42.6613C99.4167 41.5413 99.7207 39.2693 99.9127 35.8453L100.153 31.1413Z" fill="#FE724C"/>
</svg>
