<svg width="96" height="71" viewBox="0 0 96 71" fill="none" xmlns="http://www.w3.org/2000/svg">
<path d="M96 65.2709V67.4462C96 69.2487 94.5516 70.7093 92.764 70.7093H3.23595C1.44841 70.7093 0 69.2487 0 67.4462V65.2709C0 63.4683 1.44841 62.0078 3.23595 62.0078H92.764C94.5516 62.0078 96 63.4688 96 65.2709ZM93.0876 54.8978C93.0876 56.7003 91.6392 58.1609 89.8517 58.1609H6.14831C4.36077 58.1609 2.91236 56.7003 2.91236 54.8978C2.91236 32.1643 19.5452 13.2747 41.1838 9.95158C40.9888 9.29722 40.8809 8.60546 40.8809 7.88802C40.8809 3.92971 44.0746 0.70929 48 0.70929C51.9254 0.70929 55.1191 3.92971 55.1191 7.88802C55.1191 8.60546 55.0112 9.29722 54.8162 9.95158C76.4548 13.2742 93.0876 32.1643 93.0876 54.8978ZM44.6847 19.3013C44.2489 17.5532 42.492 16.4955 40.7575 16.9315C40.2432 17.062 28.0635 20.2315 20.2148 29.603C13.5599 37.5492 12.7164 47.475 12.6841 47.8935C12.5439 49.69 13.8745 51.261 15.6564 51.402C15.7427 51.409 15.8281 51.412 15.9136 51.412C17.5859 51.412 19.0028 50.1146 19.1361 48.4048C19.1426 48.323 19.8342 40.1723 25.1602 33.8132C31.6153 26.1055 42.1666 23.3049 42.3388 23.2596C44.0698 22.8193 45.1196 21.0482 44.6847 19.3013Z" fill="#FE724C"/>
</svg>
